<?xml version="1.0" encoding="UTF-8" standalone="no"?>
<!DOCTYPE svg PUBLIC "-//W3C//DTD SVG 1.1//EN" "http://www.w3.org/Graphics/SVG/1.1/DTD/svg11.dtd">
<svg width="100%" height="100%" viewBox="0 0 519 600" version="1.1" xmlns="http://www.w3.org/2000/svg" xmlns:xlink="http://www.w3.org/1999/xlink" xml:space="preserve" xmlns:serif="http://www.serif.com/" style="fill-rule:evenodd;clip-rule:evenodd;stroke-linecap:round;stroke-miterlimit:1.5;">
    <g transform="matrix(1,0,0,1,-19280.2,-1.59162e-12)">
        <g id="R5R-Azul" serif:id="R5R Azul" transform="matrix(0.176058,0,0,0.426002,16489.1,-691.627)">
            <rect x="15853.6" y="1623.53" width="2945.08" height="1408.44" style="fill:none;"/>
            <clipPath id="_clip1">
                <rect x="15853.6" y="1623.53" width="2945.08" height="1408.44"/>
            </clipPath>
            <g clip-path="url(#_clip1)">
                <g id="Logo1" transform="matrix(1.7383,0,0,0.718404,15144.5,1112.37)">
                    <g>
                        <g id="Hex" transform="matrix(15.8978,0,0,15.9314,393.18,690.334)">
                            <path d="M0.93,32.09L0.93,93.62L54.21,124.39L107.5,93.62L107.5,32.09L54.21,1.33L0.93,32.09Z" style="fill:rgb(13,139,177);fill-rule:nonzero;"/>
                            <path d="M0.93,32.09L0.93,93.62L54.21,124.39L107.5,93.62L107.5,32.09L54.21,1.33L0.93,32.09ZM3.499,33.569L3.499,92.142L54.21,121.428L104.931,92.141L104.931,33.569L54.21,4.292L3.499,33.569Z" style="fill:white;"/>
                        </g>
                        <g id="Hex1" serif:id="Hex" transform="matrix(15.8978,0,0,15.9314,393.18,690.334)">
                            <path d="M0.93,32.09L0.93,93.62L54.21,124.39L107.5,93.62L107.5,32.09L54.21,1.33L0.93,32.09ZM1.187,32.238L1.187,93.472L54.21,124.094L107.243,93.472L107.243,32.238L54.21,1.626L1.187,32.238Z"/>
                        </g>
                    </g>
                    <g id="grid_rotated" transform="matrix(0.379762,1.04246,-1.04246,0.379762,3041,-47.675)">
                        <path d="M1290.62,2125.98L1594.49,2125.98" style="fill:none;stroke:rgb(102,102,102);stroke-width:2.45px;"/>
                        <g transform="matrix(1,3.08149e-33,-3.08149e-33,1,-7.10543e-15,59.0551)">
                            <path d="M1299.45,2125.98L1594.32,2125.98" style="fill:none;stroke:rgb(102,102,102);stroke-width:2.45px;"/>
                        </g>
                        <g transform="matrix(1,3.08149e-33,-3.08149e-33,1,-7.10543e-15,118.11)">
                            <path d="M1367.87,2125.98L1594.52,2125.98" style="fill:none;stroke:rgb(102,102,102);stroke-width:2.45px;"/>
                        </g>
                        <g transform="matrix(1,3.08149e-33,-3.08149e-33,1,-7.10543e-15,177.165)">
                            <path d="M1465.09,2125.98L1592.5,2125.98" style="fill:none;stroke:rgb(102,102,102);stroke-width:2.45px;"/>
                        </g>
                        <g transform="matrix(1,3.08149e-33,-3.08149e-33,1,-7.10543e-15,-59.0551)">
                            <path d="M1182.3,2125.98L1594.49,2125.98" style="fill:none;stroke:rgb(102,102,102);stroke-width:2.45px;"/>
                        </g>
                        <g transform="matrix(1,3.08149e-33,-3.08149e-33,1,-7.10543e-15,-118.11)">
                            <path d="M1082.76,2126.99L1476.38,2125.98" style="fill:none;stroke:rgb(102,102,102);stroke-width:2.45px;"/>
                        </g>
                        <g transform="matrix(1,3.08149e-33,-3.08149e-33,1,-7.10543e-15,-177.165)">
                            <path d="M961.398,2125.98L1476.38,2125.98" style="fill:none;stroke:rgb(102,102,102);stroke-width:2.45px;"/>
                        </g>
                        <g transform="matrix(1,3.08149e-33,-3.08149e-33,1,-7.10543e-15,-236.22)">
                            <path d="M971.721,2125.98L1476.38,2125.98" style="fill:none;stroke:rgb(102,102,102);stroke-width:2.45px;"/>
                        </g>
                        <g transform="matrix(1,3.08149e-33,-3.08149e-33,1,-7.10543e-15,-295.276)">
                            <path d="M983.823,2125.98L1476.38,2125.98" style="fill:none;stroke:rgb(102,102,102);stroke-width:2.45px;"/>
                        </g>
                        <g transform="matrix(1,3.08149e-33,-3.08149e-33,1,-7.10543e-15,-354.331)">
                            <path d="M1017.9,2125.98L1476.38,2125.98" style="fill:none;stroke:rgb(102,102,102);stroke-width:2.45px;"/>
                        </g>
                        <g transform="matrix(1,3.08149e-33,-3.08149e-33,1,-7.10543e-15,-413.386)">
                            <path d="M1048.29,2125.98L1476.38,2125.98" style="fill:none;stroke:rgb(102,102,102);stroke-width:2.45px;"/>
                        </g>
                        <g transform="matrix(1,3.08149e-33,-3.08149e-33,1,-7.10543e-15,-472.441)">
                            <path d="M1074.97,2138.86L1359.5,2132.53" style="fill:none;stroke:rgb(102,102,102);stroke-width:2.45px;"/>
                        </g>
                        <g transform="matrix(1,0,0,1,295.276,0)">
                            <path d="M708.661,1789.37L708.661,1968.94" style="fill:none;stroke:rgb(102,102,102);stroke-width:2.45px;"/>
                        </g>
                        <g transform="matrix(1,0,0,1,354.331,0)">
                            <path d="M708.661,1687.15L708.661,2003.06" style="fill:none;stroke:rgb(102,102,102);stroke-width:2.45px;"/>
                        </g>
                        <g transform="matrix(1,0,0,1,413.386,0)">
                            <path d="M708.661,1665.37L708.661,2037.18" style="fill:none;stroke:rgb(102,102,102);stroke-width:2.45px;"/>
                        </g>
                        <g transform="matrix(1,0,0,1,472.441,0)">
                            <path d="M708.661,1664.06L708.661,2071.3" style="fill:none;stroke:rgb(102,102,102);stroke-width:2.45px;"/>
                        </g>
                        <g transform="matrix(1,0,0,1,531.496,0)">
                            <path d="M708.661,1662.74L708.661,2105.41" style="fill:none;stroke:rgb(102,102,102);stroke-width:2.45px;"/>
                        </g>
                        <g transform="matrix(1,0,0,1,590.551,0)">
                            <path d="M708.661,1661.43L708.661,2203.64" style="fill:none;stroke:rgb(102,102,102);stroke-width:2.45px;"/>
                        </g>
                        <g transform="matrix(1,0,0,1,649.606,0)">
                            <path d="M708.661,1659.64L708.661,2241.37" style="fill:none;stroke:rgb(102,102,102);stroke-width:2.45px;"/>
                        </g>
                        <g transform="matrix(1,0,0,1,708.661,0)">
                            <path d="M708.661,1712.6L708.661,2272.93" style="fill:none;stroke:rgb(102,102,102);stroke-width:2.45px;"/>
                        </g>
                        <g transform="matrix(1,0,0,1,767.717,0)">
                            <path d="M708.661,1712.6L708.661,2307.26" style="fill:none;stroke:rgb(102,102,102);stroke-width:2.45px;"/>
                        </g>
                        <g transform="matrix(1,0,0,1,826.772,0)">
                            <path d="M708.661,2066.93L708.661,2303.15" style="fill:none;stroke:rgb(102,102,102);stroke-width:2.45px;"/>
                        </g>
                        <g transform="matrix(1,0,0,1,885.827,0)">
                            <path d="M708.661,2066.93L708.661,2303.87" style="fill:none;stroke:rgb(102,102,102);stroke-width:2.45px;"/>
                        </g>
                    </g>
                    <g id="grid" transform="matrix(1.09262,0.192659,-0.192659,1.09262,297.278,-472.217)">
                        <path d="M708.661,2125.98L1240.58,2125.98" style="fill:none;stroke:rgb(102,102,102);stroke-width:2.45px;stroke-linecap:square;"/>
                        <g transform="matrix(1,3.08149e-33,-3.08149e-33,1,-7.10543e-15,59.0551)">
                            <path d="M708.661,2125.98L1240.58,2125.98" style="fill:none;stroke:rgb(102,102,102);stroke-width:2.45px;stroke-linecap:square;"/>
                        </g>
                        <g transform="matrix(1,3.08149e-33,-3.08149e-33,1,-7.10543e-15,118.11)">
                            <path d="M885.827,2125.98L1240.58,2125.98" style="fill:none;stroke:rgb(102,102,102);stroke-width:2.45px;stroke-linecap:square;"/>
                        </g>
                        <g transform="matrix(1,3.08149e-33,-3.08149e-33,1,-7.10543e-15,177.165)">
                            <path d="M944.979,2125.98L1242.13,2125.98" style="fill:none;stroke:rgb(102,102,102);stroke-width:2.45px;stroke-linecap:square;"/>
                        </g>
                        <g transform="matrix(1,3.08149e-33,-3.08149e-33,1,-7.10543e-15,236.22)">
                            <path d="M1117.46,2125.98L1241.31,2125.98" style="fill:none;stroke:rgb(102,102,102);stroke-width:2.45px;stroke-linecap:square;"/>
                        </g>
                        <g transform="matrix(1,3.08149e-33,-3.08149e-33,1,-7.10543e-15,295.276)">
                            <path d="M1122.05,2125.14L1269.92,2124.84" style="fill:none;stroke:rgb(102,102,102);stroke-width:2.45px;stroke-linecap:square;"/>
                        </g>
                        <g transform="matrix(1,3.08149e-33,-3.08149e-33,1,-7.10543e-15,354.331)">
                            <path d="M1122.05,2125.98L1292.64,2125.98" style="fill:none;stroke:rgb(102,102,102);stroke-width:2.45px;stroke-linecap:square;"/>
                        </g>
                        <g transform="matrix(1,3.08149e-33,-3.08149e-33,1,-7.10543e-15,-59.0551)">
                            <path d="M708.661,2125.98L1297.88,2125.98" style="fill:none;stroke:rgb(102,102,102);stroke-width:2.45px;stroke-linecap:square;"/>
                        </g>
                        <g transform="matrix(1,3.08149e-33,-3.08149e-33,1,-7.10543e-15,-118.11)">
                            <path d="M826.772,2125.98L1240.58,2125.98" style="fill:none;stroke:rgb(102,102,102);stroke-width:2.45px;stroke-linecap:square;"/>
                        </g>
                        <g transform="matrix(1,3.08149e-33,-3.08149e-33,1,-7.10543e-15,-177.165)">
                            <path d="M826.772,2125.98L1299.21,2125.98" style="fill:none;stroke:rgb(102,102,102);stroke-width:2.45px;stroke-linecap:square;"/>
                        </g>
                        <g transform="matrix(1,3.08149e-33,-3.08149e-33,1,-7.10543e-15,-236.22)">
                            <path d="M825.138,2125.98L1298.56,2125.98" style="fill:none;stroke:rgb(102,102,102);stroke-width:2.45px;stroke-linecap:square;"/>
                        </g>
                        <g transform="matrix(1,3.08149e-33,-3.08149e-33,1,-7.10543e-15,-295.276)">
                            <path d="M824.107,2125.98L1299.15,2125.98" style="fill:none;stroke:rgb(102,102,102);stroke-width:2.45px;stroke-linecap:square;"/>
                        </g>
                        <g transform="matrix(1,3.08149e-33,-3.08149e-33,1,-7.10543e-15,-354.331)">
                            <path d="M825.101,2125.98L1240.58,2125.51" style="fill:none;stroke:rgb(102,102,102);stroke-width:2.45px;stroke-linecap:square;"/>
                        </g>
                        <g transform="matrix(1,3.08149e-33,-3.08149e-33,1,-7.10543e-15,-413.386)">
                            <path d="M885.827,2125.98L1653.54,2125.98" style="fill:none;stroke:rgb(102,102,102);stroke-width:2.45px;stroke-linecap:square;"/>
                        </g>
                        <g transform="matrix(1,3.08149e-33,-3.08149e-33,1,-7.10543e-15,-472.441)">
                            <path d="M885.827,2125.98L1653.54,2125.98" style="fill:none;stroke:rgb(102,102,102);stroke-width:2.45px;stroke-linecap:square;"/>
                        </g>
                        <g transform="matrix(1,3.08149e-33,-3.08149e-33,1,-7.10543e-15,-531.496)">
                            <path d="M885.827,2125.98L1417.6,2125.98" style="fill:none;stroke:rgb(102,102,102);stroke-width:2.45px;stroke-linecap:square;"/>
                        </g>
                        <g transform="matrix(1,3.08149e-33,-3.08149e-33,1,-10.709,-592.23)">
                            <path d="M1132.76,2125.98L1309.92,2125.98" style="fill:none;stroke:rgb(102,102,102);stroke-width:2.45px;stroke-linecap:square;"/>
                        </g>
                        <path d="M708.661,2066.93L708.661,2185.11" style="fill:none;stroke:rgb(102,102,102);stroke-width:2.45px;stroke-linecap:square;"/>
                        <g transform="matrix(1,0,0,1,59.0551,0)">
                            <path d="M708.661,2066.93L708.661,2185.57" style="fill:none;stroke:rgb(102,102,102);stroke-width:2.45px;stroke-linecap:square;"/>
                        </g>
                        <g transform="matrix(1,0,0,1,118.11,0)">
                            <path d="M708.661,1772.21L708.661,2187.02" style="fill:none;stroke:rgb(102,102,102);stroke-width:2.45px;stroke-linecap:square;"/>
                        </g>
                        <g transform="matrix(1,0,0,1,177.165,0)">
                            <path d="M708.661,1594.49L708.661,2244.09" style="fill:none;stroke:rgb(102,102,102);stroke-width:2.45px;stroke-linecap:square;"/>
                        </g>
                        <g transform="matrix(1,0,0,1,236.22,0)">
                            <path d="M708.661,1594.49L708.661,2302.6" style="fill:none;stroke:rgb(102,102,102);stroke-width:2.45px;stroke-linecap:square;"/>
                        </g>
                        <g transform="matrix(1,0,0,1,295.276,0)">
                            <path d="M708.661,1594.49L708.661,2303.15" style="fill:none;stroke:rgb(102,102,102);stroke-width:2.45px;stroke-linecap:square;"/>
                        </g>
                        <g transform="matrix(1,0,0,1,354.331,0)">
                            <path d="M708.661,1594.49L708.661,2303.15" style="fill:none;stroke:rgb(102,102,102);stroke-width:2.45px;stroke-linecap:square;"/>
                        </g>
                        <g transform="matrix(1,0,0,1,413.386,0)">
                            <path d="M708.661,1533.75L708.661,2480.32" style="fill:none;stroke:rgb(102,102,102);stroke-width:2.45px;stroke-linecap:square;"/>
                        </g>
                        <g transform="matrix(1,0,0,1,472.441,0)">
                            <path d="M708.661,1533.75L708.661,2480.32" style="fill:none;stroke:rgb(102,102,102);stroke-width:2.45px;stroke-linecap:square;"/>
                        </g>
                        <g transform="matrix(1,0,0,1,531.496,0)">
                            <path d="M708.661,1594.49L708.661,2480.32" style="fill:none;stroke:rgb(102,102,102);stroke-width:2.45px;stroke-linecap:square;"/>
                        </g>
                        <g transform="matrix(1,0,0,1,590.551,0)">
                            <path d="M708.661,1533.75L708.661,2128.33" style="fill:none;stroke:rgb(102,102,102);stroke-width:2.45px;stroke-linecap:square;"/>
                        </g>
                        <g transform="matrix(1,0,0,1,649.606,0)">
                            <path d="M708.661,1594.49L708.661,1735.63" style="fill:none;stroke:rgb(102,102,102);stroke-width:2.45px;stroke-linecap:square;"/>
                        </g>
                        <g transform="matrix(1,0,0,1,708.661,0)">
                            <path d="M708.661,1594.49L708.661,1712.06" style="fill:none;stroke:rgb(102,102,102);stroke-width:2.45px;stroke-linecap:square;"/>
                        </g>
                        <g transform="matrix(1,0,0,1,767.717,0)">
                            <path d="M708.661,1653.54L708.661,1711.83" style="fill:none;stroke:rgb(102,102,102);stroke-width:2.45px;stroke-linecap:square;"/>
                        </g>
                        <g transform="matrix(1,0,0,1,826.772,0)">
                            <path d="M708.661,1653.54L708.661,1711.83" style="fill:none;stroke:rgb(102,102,102);stroke-width:2.45px;stroke-linecap:square;"/>
                        </g>
                        <g transform="matrix(1,0,0,1,885.827,0)">
                            <path d="M708.661,1653.54L708.661,1711.83" style="fill:none;stroke:rgb(102,102,102);stroke-width:2.45px;stroke-linecap:square;"/>
                        </g>
                        <g transform="matrix(1,0,0,1,944.882,0)">
                            <path d="M708.661,1653.54L708.661,1806.57" style="fill:none;stroke:rgb(102,102,102);stroke-width:2.45px;stroke-linecap:square;"/>
                        </g>
                    </g>
                    <g id="Layer1" transform="matrix(1.09814,0.193632,-0.193632,1.09814,334.684,-342.509)">
                        <path d="M885.827,2066.93L767.717,2066.93" style="fill:none;stroke:white;stroke-width:7.33px;stroke-linejoin:round;"/>
                        <path d="M1122.05,1889.76L1062.99,1889.76" style="fill:none;stroke:white;stroke-width:7.33px;stroke-linejoin:round;"/>
                        <path d="M1062.99,1889.76L1062.99,2125.98" style="fill:none;stroke:white;stroke-width:7.33px;stroke-linejoin:round;"/>
                        <path d="M826.772,1653.54L826.772,1889.76" style="fill:none;stroke:white;stroke-width:7.33px;stroke-linejoin:round;"/>
                        <path d="M1003.94,1653.54L1003.94,1771.65" style="fill:none;stroke:white;stroke-width:7.33px;stroke-linejoin:round;"/>
                        <path d="M1003.94,1771.65L944.882,1771.65" style="fill:none;stroke:white;stroke-width:7.33px;stroke-linejoin:round;"/>
                        <path d="M944.882,1889.76L885.827,1889.76L885.827,2066.93" style="fill:none;stroke:white;stroke-width:7.33px;stroke-linejoin:round;"/>
                        <path d="M944.882,1712.6L885.827,1712.6" style="fill:none;stroke:white;stroke-width:7.33px;stroke-linejoin:round;"/>
                        <path d="M1122.05,1771.65L1062.99,1771.65" style="fill:none;stroke:white;stroke-width:7.33px;stroke-linejoin:round;"/>
                        <path d="M1062.99,1771.65L1062.99,1830.71L1003.94,1830.71" style="fill:none;stroke:white;stroke-width:7.33px;stroke-linejoin:round;"/>
                        <path d="M1003.94,1830.71L1003.94,2007.87" style="fill:none;stroke:white;stroke-width:7.33px;stroke-linejoin:round;"/>
                        <path d="M1062.99,1653.54L1062.99,1594.49L944.882,1594.49L944.882,1535.43L826.772,1535.43" style="fill:none;stroke:white;stroke-width:7.33px;stroke-linejoin:round;"/>
                        <path d="M826.772,1653.54L767.717,1653.54L767.717,1712.6" style="fill:none;stroke:white;stroke-width:7.33px;stroke-linejoin:round;"/>
                        <path d="M826.772,1771.65L767.717,1771.65" style="fill:none;stroke:white;stroke-width:7.33px;stroke-linejoin:round;"/>
                        <path d="M826.772,1889.76L767.717,1889.76L767.717,2007.87L708.661,2007.87" style="fill:none;stroke:white;stroke-width:7.33px;stroke-linejoin:round;"/>
                        <path d="M1003.94,2066.93L1003.94,2007.87" style="fill:none;stroke:white;stroke-width:7.33px;stroke-linejoin:round;"/>
                        <path d="M944.882,2007.87L1003.94,2007.87" style="fill:none;stroke:white;stroke-width:7.33px;stroke-linejoin:round;"/>
                        <path d="M944.882,2007.87L944.882,2125.98" style="fill:none;stroke:white;stroke-width:7.33px;stroke-linejoin:round;"/>
                        <path d="M885.827,2125.98L944.882,2125.98" style="fill:none;stroke:white;stroke-width:7.33px;stroke-linejoin:round;"/>
                        <path d="M1181.1,2185.04L1122.05,2185.04L1122.05,2244.09L1062.99,2244.09" style="fill:none;stroke:white;stroke-width:7.33px;"/>
                        <path d="M1181.1,2185.04L1181.1,2362.2L1240.16,2362.2" style="fill:none;stroke:white;stroke-width:7.33px;stroke-linejoin:round;"/>
                        <path d="M1122.05,1535.43L1181.1,1535.43L1181.1,1417.32" style="fill:none;stroke:white;stroke-width:7.33px;stroke-linejoin:round;"/>
                        <path d="M1666.05,1912.42L1476.38,1594.49" style="fill:none;stroke:white;stroke-width:7.33px;stroke-linejoin:round;"/>
                        <g transform="matrix(1,0,0,1,-59.0551,4.44089e-16)">
                            <path d="M1588.39,1791.33L1476.38,1594.49" style="fill:none;stroke:white;stroke-width:7.33px;stroke-linejoin:round;"/>
                        </g>
                        <g transform="matrix(1,0,0,1,-60.2921,238.331)">
                            <path d="M1494.09,1624.02L1426.99,1507.74" style="fill:none;stroke:white;stroke-width:7.33px;stroke-linejoin:round;"/>
                        </g>
                        <g transform="matrix(1,0,0,1,-236.22,59.0551)">
                            <path d="M1668.74,1920.42L1471.28,1576.5" style="fill:none;stroke:white;stroke-width:7.33px;stroke-linejoin:round;"/>
                        </g>
                        <g transform="matrix(6.12323e-17,-1,1,6.12323e-17,-144.244,3446.32)">
                            <path d="M1496.37,1627.87L1466.83,1578.58" style="fill:none;stroke:white;stroke-width:7.33px;stroke-linejoin:round;"/>
                        </g>
                        <g transform="matrix(1.44499e-16,-1,1,1.44499e-16,28.4111,3414.69)">
                            <path d="M1502.27,1637.63L1466.83,1578.58" style="fill:none;stroke:white;stroke-width:7.33px;stroke-linejoin:round;"/>
                        </g>
                        <g transform="matrix(3.38982e-18,-0.834868,0.857053,7.56647e-17,-40.6039,2998.43)">
                            <path d="M1499.63,1641.04L1465.14,1582" style="fill:none;stroke:white;stroke-width:8.66px;stroke-linejoin:round;"/>
                        </g>
                        <g transform="matrix(6.12323e-17,-1,1,6.12323e-17,-165.236,3526.68)">
                            <path d="M1502.27,1637.63L1466.83,1578.58" style="fill:none;stroke:white;stroke-width:7.33px;stroke-linejoin:round;"/>
                        </g>
                        <g transform="matrix(6.12323e-17,-1,1,6.12323e-17,-178.84,3737.42)">
                            <path d="M1502.27,1637.63L1466.83,1578.58" style="fill:none;stroke:white;stroke-width:7.33px;stroke-linejoin:round;"/>
                        </g>
                        <g transform="matrix(1,0,0,1,-236.22,177.165)">
                            <path d="M1649.56,1882.68L1480.1,1593.83" style="fill:none;stroke:white;stroke-width:7.33px;stroke-linejoin:round;"/>
                        </g>
                        <g transform="matrix(1,0,0,1,-236.22,295.276)">
                            <path d="M1635.27,1859.3L1480.6,1594.29" style="fill:none;stroke:white;stroke-width:7.33px;stroke-linejoin:round;"/>
                        </g>
                        <g transform="matrix(1,0,0,1,-236.22,413.386)">
                            <path d="M1635.96,1857.2L1482.69,1596.13" style="fill:none;stroke:white;stroke-width:7.33px;stroke-linejoin:round;"/>
                        </g>
                        <g transform="matrix(1,0,0,1,-289.554,427.454)">
                            <path d="M1636.68,1872.6L1476.38,1594.49" style="fill:none;stroke:white;stroke-width:7.33px;stroke-linejoin:round;"/>
                        </g>
                        <path d="M1243.88,1771L1181.1,1771.65" style="fill:none;stroke:white;stroke-width:7.33px;stroke-linejoin:round;"/>
                        <path d="M1244.38,1889.57L1181.1,1889.76" style="fill:none;stroke:white;stroke-width:7.33px;stroke-linejoin:round;"/>
                        <path d="M1246.47,2009.52L1181.1,2007.87" style="fill:none;stroke:white;stroke-width:7.33px;stroke-linejoin:round;"/>
                        <g transform="matrix(1,0,0,1,9.47076,0.723113)">
                            <path d="M1230.61,1637.63L1230.61,1535.43L1299.21,1535.43" style="fill:none;stroke:white;stroke-width:7.33px;stroke-linejoin:round;"/>
                        </g>
                    </g>
                    <g id="main_paths" transform="matrix(3.26753,0,0,3.26753,-60834.5,711.523)">
                        <g transform="matrix(0.336077,0.0592595,-0.0592595,0.336077,18720.3,-322.577)">
                            <path d="M826.772,1653.54L1181.1,1653.54" style="fill:none;stroke:white;stroke-width:15.87px;stroke-linejoin:round;"/>
                        </g>
                        <g transform="matrix(0.336077,0.0592595,-0.0592595,0.336077,18720.3,-322.577)">
                            <path d="M1122.05,1653.54L1122.05,1889.76" style="fill:none;stroke:white;stroke-width:15.87px;stroke-linejoin:round;"/>
                        </g>
                        <g transform="matrix(0.336077,0.0592595,-0.0592595,0.336077,18720.3,-322.577)">
                            <path d="M1122.05,1653.54L1122.05,1476.38" style="fill:none;stroke:white;stroke-width:15.87px;stroke-linejoin:round;"/>
                        </g>
                        <g transform="matrix(0.336077,0.0592595,-0.0592595,0.336077,18720.3,-322.577)">
                            <path d="M1003.94,1712.6L944.882,1712.6" style="fill:none;stroke:white;stroke-width:15.87px;stroke-linejoin:round;"/>
                        </g>
                        <g transform="matrix(0.336077,0.0592595,-0.066667,0.378087,18732.5,-392.042)">
                            <path d="M1181.1,1653.54L1181.1,2125.98" style="fill:none;stroke:white;stroke-width:14.91px;stroke-linejoin:bevel;"/>
                        </g>
                        <g transform="matrix(0.336077,0.0592595,-0.0592595,0.336077,18720.3,-322.577)">
                            <path d="M1003.94,1712.6L1122.05,1712.6" style="fill:none;stroke:white;stroke-width:15.87px;stroke-linejoin:round;"/>
                        </g>
                        <g transform="matrix(0.336077,0.0592595,-0.0592595,0.336077,18720.3,-322.577)">
                            <path d="M1181.1,1653.54L1358.27,1594.49L1535.43,1594.49L1641.73,1771.65" style="fill:none;stroke:white;stroke-width:15.87px;stroke-linejoin:round;"/>
                        </g>
                        <g transform="matrix(0.336077,0.0592595,-0.0592595,0.336077,18720.3,-322.577)">
                            <path d="M944.882,1712.6L944.882,1889.76" style="fill:none;stroke:white;stroke-width:15.87px;stroke-linejoin:round;"/>
                        </g>
                    </g>
                    <g id="Origin" transform="matrix(3.15736,-2.027e-16,2.027e-16,3.15736,-1191.66,-3109.35)">
                        <circle cx="772.251" cy="1520.19" r="15.244" style="fill:rgb(0,107,139);"/>
                        <path d="M772.251,1504.94C780.665,1504.94 787.495,1511.78 787.495,1520.19C787.495,1528.6 780.665,1535.43 772.251,1535.43C763.838,1535.43 757.007,1528.6 757.007,1520.19C757.007,1511.78 763.838,1504.94 772.251,1504.94ZM772.251,1510.12C777.809,1510.12 782.321,1514.63 782.321,1520.19C782.321,1525.75 777.809,1530.26 772.251,1530.26C766.694,1530.26 762.181,1525.75 762.181,1520.19C762.181,1514.63 766.694,1510.12 772.251,1510.12Z" style="fill:white;"/>
                    </g>
                    <g id="Destinations" transform="matrix(1.24132,0,0,1.24132,-184.873,-463.27)">
                        <g transform="matrix(1,0,0,1,473.185,15.2443)">
                            <circle cx="772.251" cy="1520.19" r="15.244" style="fill:rgb(0,107,139);stroke:white;stroke-width:8.23px;stroke-linejoin:round;"/>
                        </g>
                        <g transform="matrix(1,0,0,1,409.354,59.0551)">
                            <circle cx="772.251" cy="1520.19" r="15.244" style="fill:rgb(0,107,139);stroke:white;stroke-width:8.23px;stroke-linejoin:round;"/>
                        </g>
                        <g transform="matrix(1,0,0,1,138.178,64.4065)">
                            <circle cx="772.251" cy="1520.19" r="15.244" style="fill:rgb(0,107,139);stroke:white;stroke-width:8.23px;stroke-linejoin:round;"/>
                        </g>
                        <g transform="matrix(1,0,0,1,58.2755,208.798)">
                            <circle cx="772.251" cy="1520.19" r="15.244" style="fill:rgb(0,107,139);stroke:white;stroke-width:8.23px;stroke-linejoin:round;"/>
                        </g>
                        <g transform="matrix(1,0,0,1,159.358,230.065)">
                            <circle cx="772.251" cy="1520.19" r="15.244" style="fill:rgb(0,107,139);stroke:white;stroke-width:8.23px;stroke-linejoin:round;"/>
                        </g>
                        <g transform="matrix(1,0,0,1,45.0312,261.174)">
                            <circle cx="772.251" cy="1520.19" r="15.244" style="fill:rgb(0,107,139);stroke:white;stroke-width:8.23px;stroke-linejoin:round;"/>
                        </g>
                        <g transform="matrix(1,0,0,1,-48.3455,461.182)">
                            <circle cx="772.251" cy="1520.19" r="15.244" style="fill:rgb(0,107,139);stroke:white;stroke-width:8.23px;stroke-linejoin:round;"/>
                        </g>
                        <g transform="matrix(1,0,0,1,6.15003,525.364)">
                            <circle cx="772.251" cy="1520.19" r="15.244" style="fill:rgb(0,107,139);stroke:white;stroke-width:8.23px;stroke-linejoin:round;"/>
                        </g>
                        <g transform="matrix(1,0,0,1,96.7453,594.405)">
                            <circle cx="772.251" cy="1520.19" r="15.244" style="fill:rgb(0,107,139);stroke:white;stroke-width:8.23px;stroke-linejoin:round;"/>
                        </g>
                        <g transform="matrix(1,0,0,1,213.364,563.917)">
                            <circle cx="772.251" cy="1520.19" r="15.244" style="fill:rgb(0,107,139);stroke:white;stroke-width:8.23px;stroke-linejoin:round;"/>
                        </g>
                        <g transform="matrix(1,0,0,1,254.943,615.901)">
                            <circle cx="772.251" cy="1520.19" r="15.244" style="fill:rgb(0,107,139);stroke:white;stroke-width:8.23px;stroke-linejoin:round;"/>
                        </g>
                        <g transform="matrix(1,0,0,1,231.776,723.906)">
                            <circle cx="772.251" cy="1520.19" r="15.244" style="fill:rgb(0,107,139);stroke:white;stroke-width:8.23px;stroke-linejoin:round;"/>
                        </g>
                        <g transform="matrix(1,0,0,1,365.571,857.26)">
                            <circle cx="772.251" cy="1520.19" r="15.244" style="fill:rgb(0,107,139);stroke:white;stroke-width:8.23px;stroke-linejoin:round;"/>
                        </g>
                        <g transform="matrix(1,0,0,1,479.257,821.991)">
                            <circle cx="772.251" cy="1520.19" r="15.244" style="fill:rgb(0,107,139);stroke:white;stroke-width:8.23px;stroke-linejoin:round;"/>
                        </g>
                        <g transform="matrix(1,0,0,1,578.497,785.999)">
                            <circle cx="772.251" cy="1520.19" r="15.244" style="fill:rgb(0,107,139);stroke:white;stroke-width:8.23px;stroke-linejoin:round;"/>
                        </g>
                        <g transform="matrix(1,0,0,1,546.921,701.471)">
                            <circle cx="772.251" cy="1520.19" r="15.244" style="fill:rgb(0,107,139);stroke:white;stroke-width:8.23px;stroke-linejoin:round;"/>
                        </g>
                        <g transform="matrix(1,0,0,1,621.813,599.283)">
                            <circle cx="772.251" cy="1520.19" r="15.244" style="fill:rgb(0,107,139);stroke:white;stroke-width:8.23px;stroke-linejoin:round;"/>
                        </g>
                        <g transform="matrix(1,0,0,1,654.63,533.56)">
                            <circle cx="772.251" cy="1520.19" r="15.244" style="fill:rgb(0,107,139);stroke:white;stroke-width:8.23px;stroke-linejoin:round;"/>
                        </g>
                        <g transform="matrix(1,0,0,1,620.057,437.58)">
                            <circle cx="772.251" cy="1520.19" r="15.244" style="fill:rgb(0,107,139);stroke:white;stroke-width:8.23px;stroke-linejoin:round;"/>
                        </g>
                        <g transform="matrix(1,0,0,1,771.971,548.183)">
                            <circle cx="772.251" cy="1520.19" r="15.244" style="fill:rgb(0,107,139);stroke:white;stroke-width:8.23px;stroke-linejoin:round;"/>
                        </g>
                        <g transform="matrix(1,0,0,1,719.804,400.368)">
                            <circle cx="772.251" cy="1520.19" r="15.244" style="fill:rgb(0,107,139);stroke:white;stroke-width:8.23px;stroke-linejoin:round;"/>
                        </g>
                        <g transform="matrix(1,0,0,1,822.237,399.709)">
                            <circle cx="772.251" cy="1520.19" r="15.244" style="fill:rgb(0,107,139);stroke:white;stroke-width:8.23px;stroke-linejoin:round;"/>
                        </g>
                        <g transform="matrix(1,0,0,1,554.271,141.578)">
                            <circle cx="772.251" cy="1520.19" r="15.244" style="fill:rgb(0,107,139);stroke:white;stroke-width:8.23px;stroke-linejoin:round;"/>
                        </g>
                    </g>
                    <g id="Fast" transform="matrix(1.38034,0,0,1.38034,407.965,-1244.86)">
                        <g transform="matrix(0.67337,0,0,0.67337,-4835.15,1370.86)">
                            <path d="M8054.93,498.841L8081.3,399.808L8188.41,399.808L8183.29,432.236L8108.08,432.236L8095.16,474.621C8103.14,469.597 8112.56,467.086 8123.42,467.086C8140.19,467.086 8153.18,473.029 8162.37,484.914C8171.57,496.8 8175.45,512.476 8174.01,531.942C8172.93,544.859 8169.14,556.476 8162.64,566.792C8156.14,577.108 8147.59,585.047 8137.01,590.608C8126.42,596.17 8114.76,598.816 8102.02,598.547C8090.99,598.457 8080.96,595.923 8071.95,590.945C8062.93,585.966 8055.91,579.104 8050.89,570.358C8045.87,561.611 8043.31,551.856 8043.22,541.092L8080.49,541.092C8080.85,549.075 8083.05,555.332 8087.09,559.862C8091.12,564.392 8096.6,566.747 8103.5,566.926C8112.47,567.195 8119.85,563.921 8125.64,557.104C8131.42,550.286 8134.9,541.136 8136.07,529.654C8137.14,519.428 8135.59,511.355 8131.42,505.434C8127.25,499.514 8120.9,496.464 8112.38,496.284C8102.87,496.105 8094.08,499.603 8086.01,506.78L8054.93,498.841Z" style="fill:white;fill-rule:nonzero;stroke:white;stroke-width:5.13px;stroke-linecap:butt;stroke-miterlimit:2;"/>
                        </g>
                        <g transform="matrix(1.17102,0,0,1.17102,-9034.67,1193.97)">
                            <path d="M8120.99,524.003L8088.97,524.003L8076.46,595.721L8037.03,595.721L8071.07,399.808L8135.93,399.942C8157.64,399.942 8174.35,405.055 8186.05,415.281C8197.76,425.508 8202.94,439.726 8201.59,457.936C8199.71,484.847 8185.36,503.55 8158.54,514.046L8186.12,593.568L8186.12,595.721L8144.14,595.721L8120.99,524.003ZM8094.62,491.306L8123.95,491.575C8134.36,491.395 8142.95,488.592 8149.72,483.165C8156.49,477.738 8160.55,470.36 8161.9,461.031C8163.15,452.329 8161.77,445.512 8157.73,440.578C8153.69,435.644 8147.28,432.998 8138.49,432.639L8104.85,432.505L8094.62,491.306Z" style="fill:white;fill-rule:nonzero;stroke:white;stroke-width:2.95px;stroke-linecap:butt;stroke-miterlimit:2;"/>
                        </g>
                        <g transform="matrix(1.17102,0,0,1.17102,-8756.7,1193.97)">
                            <path d="M8120.99,524.003L8088.97,524.003L8076.46,595.721L8037.03,595.721L8071.07,399.808L8135.93,399.942C8157.64,399.942 8174.35,405.055 8186.05,415.281C8197.76,425.508 8202.94,439.726 8201.59,457.936C8199.71,484.847 8185.36,503.55 8158.54,514.046L8186.12,593.568L8186.12,595.721L8144.14,595.721L8120.99,524.003ZM8094.62,491.306L8123.95,491.575C8134.36,491.395 8142.95,488.592 8149.72,483.165C8156.49,477.738 8160.55,470.36 8161.9,461.031C8163.15,452.329 8161.77,445.512 8157.73,440.578C8153.69,435.644 8147.28,432.998 8138.49,432.639L8104.85,432.505L8094.62,491.306Z" style="fill:white;fill-rule:nonzero;stroke:white;stroke-width:2.95px;stroke-linecap:butt;stroke-miterlimit:2;"/>
                        </g>
                        <g transform="matrix(0.237518,-0.137131,0.137131,0.237518,-3775.99,5314.55)">
                            <g transform="matrix(136.322,0,0,136.322,18983.5,53.5114)">
                                <path d="M0.047,-0.269C0.047,-0.351 0.066,-0.416 0.104,-0.465C0.142,-0.514 0.193,-0.538 0.255,-0.538C0.32,-0.538 0.37,-0.515 0.406,-0.47L0.411,-0.528L0.493,-0.528L0.493,-0.013C0.493,0.056 0.473,0.11 0.432,0.149C0.392,0.188 0.337,0.208 0.269,0.208C0.231,0.208 0.194,0.2 0.157,0.184C0.121,0.167 0.093,0.145 0.074,0.117L0.121,0.063C0.159,0.11 0.207,0.134 0.263,0.134C0.307,0.134 0.341,0.122 0.365,0.097C0.39,0.072 0.402,0.038 0.402,-0.007L0.402,-0.053C0.366,-0.011 0.317,0.01 0.254,0.01C0.193,0.01 0.142,-0.015 0.104,-0.065C0.066,-0.115 0.047,-0.183 0.047,-0.269ZM0.138,-0.258C0.138,-0.199 0.15,-0.152 0.174,-0.118C0.199,-0.084 0.233,-0.067 0.277,-0.067C0.334,-0.067 0.376,-0.093 0.402,-0.145L0.402,-0.386C0.375,-0.436 0.333,-0.461 0.278,-0.461C0.234,-0.461 0.2,-0.444 0.175,-0.41C0.15,-0.376 0.138,-0.325 0.138,-0.258Z" style="fill:white;fill-rule:nonzero;"/>
                            </g>
                            <g transform="matrix(136.322,0,0,136.322,19060,53.5114)">
                                <path d="M0.167,-0L0.076,-0L0.076,-0.528L0.167,-0.528L0.167,-0ZM0.069,-0.668C0.069,-0.683 0.073,-0.695 0.082,-0.706C0.091,-0.716 0.104,-0.721 0.122,-0.721C0.14,-0.721 0.153,-0.716 0.162,-0.706C0.171,-0.695 0.176,-0.683 0.176,-0.668C0.176,-0.654 0.171,-0.642 0.162,-0.632C0.153,-0.622 0.14,-0.617 0.122,-0.617C0.104,-0.617 0.091,-0.622 0.082,-0.632C0.073,-0.642 0.069,-0.654 0.069,-0.668Z" style="fill:white;fill-rule:nonzero;"/>
                            </g>
                            <g transform="matrix(136.322,0,0,136.322,19093.1,53.5114)">
                                <path d="M0.191,-0.656L0.191,-0.528L0.29,-0.528L0.29,-0.458L0.191,-0.458L0.191,-0.131C0.191,-0.11 0.195,-0.094 0.204,-0.083C0.213,-0.073 0.228,-0.067 0.249,-0.067C0.259,-0.067 0.274,-0.069 0.292,-0.073L0.292,-0C0.268,0.007 0.245,0.01 0.223,0.01C0.182,0.01 0.152,-0.002 0.131,-0.027C0.111,-0.051 0.101,-0.086 0.101,-0.131L0.101,-0.458L0.004,-0.458L0.004,-0.528L0.101,-0.528L0.101,-0.656L0.191,-0.656Z" style="fill:white;fill-rule:nonzero;"/>
                            </g>
                            <g transform="matrix(136.322,0,0,136.322,19137.6,53.5114)">
                                <path d="M0.159,-0.464C0.199,-0.514 0.251,-0.538 0.315,-0.538C0.427,-0.538 0.483,-0.475 0.484,-0.349L0.484,-0L0.394,-0L0.394,-0.35C0.393,-0.388 0.385,-0.416 0.367,-0.434C0.35,-0.452 0.324,-0.461 0.288,-0.461C0.258,-0.461 0.233,-0.454 0.21,-0.438C0.188,-0.422 0.171,-0.402 0.159,-0.376L0.159,-0L0.068,-0L0.068,-0.75L0.159,-0.75L0.159,-0.464Z" style="fill:white;fill-rule:nonzero;"/>
                            </g>
                            <g transform="matrix(136.322,0,0,136.322,19212.7,53.5114)">
                                <path d="M0.395,-0.052C0.359,-0.011 0.308,0.01 0.24,0.01C0.183,0.01 0.141,-0.007 0.111,-0.039C0.082,-0.072 0.067,-0.12 0.066,-0.185L0.066,-0.528L0.157,-0.528L0.157,-0.187C0.157,-0.107 0.189,-0.067 0.254,-0.067C0.323,-0.067 0.369,-0.093 0.392,-0.144L0.392,-0.528L0.482,-0.528L0.482,-0L0.396,-0L0.395,-0.052Z" style="fill:white;fill-rule:nonzero;"/>
                            </g>
                            <g transform="matrix(136.322,0,0,136.322,19287.8,53.5114)">
                                <path d="M0.516,-0.258C0.516,-0.178 0.497,-0.113 0.46,-0.064C0.423,-0.015 0.373,0.01 0.311,0.01C0.244,0.01 0.192,-0.014 0.156,-0.061L0.151,-0L0.068,-0L0.068,-0.75L0.159,-0.75L0.159,-0.47C0.195,-0.515 0.245,-0.538 0.31,-0.538C0.374,-0.538 0.424,-0.514 0.461,-0.465C0.497,-0.417 0.516,-0.35 0.516,-0.266L0.516,-0.258ZM0.425,-0.269C0.425,-0.33 0.413,-0.378 0.39,-0.411C0.366,-0.445 0.332,-0.461 0.287,-0.461C0.228,-0.461 0.185,-0.434 0.159,-0.378L0.159,-0.15C0.186,-0.095 0.229,-0.067 0.288,-0.067C0.331,-0.067 0.365,-0.084 0.389,-0.117C0.413,-0.151 0.425,-0.201 0.425,-0.269Z" style="fill:white;fill-rule:nonzero;"/>
                            </g>
                            <g transform="matrix(136.322,0,0,136.322,19364.3,53.5114)">
                                <path d="M0.07,-0.047C0.07,-0.063 0.075,-0.076 0.084,-0.086C0.094,-0.097 0.107,-0.102 0.126,-0.102C0.145,-0.102 0.159,-0.097 0.168,-0.086C0.178,-0.076 0.183,-0.063 0.183,-0.047C0.183,-0.032 0.178,-0.02 0.168,-0.01C0.159,0 0.145,0.005 0.126,0.005C0.107,0.005 0.094,0 0.084,-0.01C0.075,-0.02 0.07,-0.032 0.07,-0.047Z" style="fill:white;fill-rule:nonzero;"/>
                            </g>
                            <g transform="matrix(136.322,0,0,136.322,19400.2,53.5114)">
                                <path d="M0.28,-0.064C0.313,-0.064 0.341,-0.074 0.365,-0.093C0.389,-0.113 0.402,-0.137 0.405,-0.167L0.49,-0.167C0.489,-0.136 0.478,-0.107 0.459,-0.08C0.44,-0.053 0.414,-0.031 0.382,-0.015C0.35,0.002 0.316,0.01 0.28,0.01C0.208,0.01 0.151,-0.014 0.109,-0.062C0.066,-0.11 0.045,-0.176 0.045,-0.259L0.045,-0.274C0.045,-0.326 0.054,-0.372 0.073,-0.412C0.092,-0.452 0.119,-0.483 0.155,-0.505C0.19,-0.527 0.232,-0.538 0.28,-0.538C0.339,-0.538 0.388,-0.52 0.427,-0.485C0.467,-0.449 0.488,-0.403 0.49,-0.347L0.405,-0.347C0.402,-0.381 0.389,-0.409 0.366,-0.431C0.343,-0.453 0.314,-0.464 0.28,-0.464C0.234,-0.464 0.198,-0.447 0.173,-0.414C0.148,-0.381 0.135,-0.333 0.135,-0.271L0.135,-0.254C0.135,-0.193 0.148,-0.146 0.173,-0.113C0.198,-0.08 0.234,-0.064 0.28,-0.064Z" style="fill:white;fill-rule:nonzero;"/>
                            </g>
                            <g transform="matrix(136.322,0,0,136.322,19471.5,53.5114)">
                                <path d="M0.044,-0.269C0.044,-0.321 0.055,-0.367 0.075,-0.409C0.095,-0.45 0.124,-0.482 0.16,-0.504C0.196,-0.527 0.238,-0.538 0.284,-0.538C0.356,-0.538 0.414,-0.513 0.459,-0.463C0.503,-0.414 0.525,-0.347 0.525,-0.265L0.525,-0.258C0.525,-0.207 0.516,-0.161 0.496,-0.12C0.476,-0.079 0.448,-0.047 0.411,-0.024C0.375,-0.002 0.333,0.01 0.285,0.01C0.214,0.01 0.156,-0.015 0.111,-0.065C0.067,-0.115 0.044,-0.181 0.044,-0.263L0.044,-0.269ZM0.135,-0.258C0.135,-0.2 0.149,-0.153 0.176,-0.117C0.203,-0.082 0.24,-0.064 0.285,-0.064C0.331,-0.064 0.368,-0.082 0.395,-0.118C0.422,-0.154 0.435,-0.204 0.435,-0.269C0.435,-0.327 0.421,-0.374 0.394,-0.41C0.366,-0.446 0.33,-0.464 0.284,-0.464C0.24,-0.464 0.204,-0.446 0.176,-0.411C0.149,-0.375 0.135,-0.324 0.135,-0.258Z" style="fill:white;fill-rule:nonzero;"/>
                            </g>
                            <g transform="matrix(136.322,0,0,136.322,19549.3,53.5114)">
                                <path d="M0.153,-0.528L0.156,-0.47C0.194,-0.515 0.247,-0.538 0.313,-0.538C0.386,-0.538 0.437,-0.51 0.463,-0.453C0.481,-0.479 0.504,-0.499 0.532,-0.515C0.56,-0.53 0.593,-0.538 0.632,-0.538C0.748,-0.538 0.807,-0.477 0.809,-0.354L0.809,-0L0.718,-0L0.718,-0.349C0.718,-0.386 0.71,-0.415 0.692,-0.433C0.675,-0.452 0.646,-0.461 0.605,-0.461C0.572,-0.461 0.544,-0.451 0.522,-0.431C0.5,-0.411 0.487,-0.384 0.483,-0.351L0.483,-0L0.393,-0L0.393,-0.346C0.393,-0.423 0.355,-0.461 0.28,-0.461C0.221,-0.461 0.18,-0.436 0.158,-0.386L0.158,-0L0.068,-0L0.068,-0.528L0.153,-0.528Z" style="fill:white;fill-rule:nonzero;"/>
                            </g>
                            <g transform="matrix(136.322,0,0,136.322,19668.8,53.5114)">
                                <path d="M0.086,0.061L0.009,0.061L0.306,-0.711L0.383,-0.711L0.086,0.061Z" style="fill:white;fill-rule:nonzero;"/>
                            </g>
                            <g transform="matrix(136.322,0,0,136.322,19724.9,53.5114)">
                                <path d="M0.167,-0L0.076,-0L0.076,-0.528L0.167,-0.528L0.167,-0ZM0.069,-0.668C0.069,-0.683 0.073,-0.695 0.082,-0.706C0.091,-0.716 0.104,-0.721 0.122,-0.721C0.14,-0.721 0.153,-0.716 0.162,-0.706C0.171,-0.695 0.176,-0.683 0.176,-0.668C0.176,-0.654 0.171,-0.642 0.162,-0.632C0.153,-0.622 0.14,-0.617 0.122,-0.617C0.104,-0.617 0.091,-0.622 0.082,-0.632C0.073,-0.642 0.069,-0.654 0.069,-0.668Z" style="fill:white;fill-rule:nonzero;"/>
                            </g>
                            <g transform="matrix(136.322,0,0,136.322,19758,53.5114)">
                                <path d="M0.515,-0.258C0.515,-0.178 0.496,-0.113 0.459,-0.064C0.423,-0.015 0.373,0.01 0.31,0.01C0.246,0.01 0.195,-0.011 0.159,-0.051L0.159,0.203L0.068,0.203L0.068,-0.528L0.151,-0.528L0.155,-0.47C0.192,-0.515 0.243,-0.538 0.309,-0.538C0.372,-0.538 0.422,-0.514 0.459,-0.466C0.496,-0.418 0.515,-0.352 0.515,-0.267L0.515,-0.258ZM0.424,-0.269C0.424,-0.328 0.412,-0.375 0.386,-0.41C0.361,-0.444 0.326,-0.461 0.282,-0.461C0.227,-0.461 0.186,-0.437 0.159,-0.389L0.159,-0.136C0.186,-0.088 0.227,-0.064 0.283,-0.064C0.326,-0.064 0.36,-0.081 0.386,-0.115C0.412,-0.15 0.424,-0.201 0.424,-0.269Z" style="fill:white;fill-rule:nonzero;"/>
                            </g>
                            <g transform="matrix(136.322,0,0,136.322,19834.5,53.5114)">
                                <path d="M0.288,0.01C0.216,0.01 0.158,-0.014 0.113,-0.061C0.068,-0.108 0.045,-0.171 0.045,-0.25L0.045,-0.266C0.045,-0.319 0.055,-0.365 0.075,-0.406C0.095,-0.448 0.123,-0.48 0.159,-0.503C0.195,-0.526 0.234,-0.538 0.276,-0.538C0.345,-0.538 0.398,-0.515 0.437,-0.47C0.475,-0.425 0.494,-0.36 0.494,-0.276L0.494,-0.238L0.136,-0.238C0.137,-0.186 0.152,-0.144 0.181,-0.112C0.211,-0.08 0.248,-0.064 0.292,-0.064C0.324,-0.064 0.351,-0.07 0.374,-0.083C0.396,-0.097 0.415,-0.114 0.432,-0.135L0.487,-0.092C0.443,-0.024 0.376,0.01 0.288,0.01ZM0.276,-0.464C0.24,-0.464 0.209,-0.451 0.185,-0.424C0.16,-0.398 0.145,-0.36 0.139,-0.313L0.403,-0.313L0.403,-0.319C0.401,-0.365 0.388,-0.401 0.366,-0.426C0.344,-0.451 0.314,-0.464 0.276,-0.464Z" style="fill:white;fill-rule:nonzero;"/>
                            </g>
                            <g transform="matrix(136.322,0,0,136.322,19906.7,53.5114)">
                                <path d="M0.395,-0C0.389,-0.01 0.385,-0.029 0.382,-0.056C0.34,-0.012 0.29,0.01 0.231,0.01C0.179,0.01 0.137,-0.005 0.103,-0.034C0.07,-0.064 0.053,-0.101 0.053,-0.146C0.053,-0.201 0.074,-0.244 0.116,-0.275C0.158,-0.305 0.217,-0.32 0.292,-0.32L0.38,-0.32L0.38,-0.362C0.38,-0.393 0.371,-0.419 0.352,-0.437C0.333,-0.456 0.305,-0.465 0.269,-0.465C0.236,-0.465 0.209,-0.457 0.188,-0.441C0.166,-0.425 0.155,-0.405 0.155,-0.382L0.064,-0.382C0.064,-0.408 0.073,-0.434 0.092,-0.458C0.111,-0.483 0.136,-0.502 0.168,-0.517C0.2,-0.531 0.236,-0.538 0.274,-0.538C0.335,-0.538 0.382,-0.523 0.417,-0.492C0.451,-0.462 0.469,-0.42 0.471,-0.367L0.471,-0.124C0.471,-0.075 0.477,-0.036 0.489,-0.008L0.489,-0L0.395,-0ZM0.245,-0.069C0.273,-0.069 0.3,-0.076 0.325,-0.091C0.351,-0.105 0.369,-0.125 0.38,-0.148L0.38,-0.256L0.31,-0.256C0.199,-0.256 0.144,-0.224 0.144,-0.159C0.144,-0.131 0.153,-0.109 0.172,-0.093C0.191,-0.077 0.215,-0.069 0.245,-0.069Z" style="fill:white;fill-rule:nonzero;"/>
                            </g>
                            <g transform="matrix(136.322,0,0,136.322,19980.9,53.5114)">
                                <path d="M0.607,-0.093C0.583,-0.059 0.55,-0.033 0.507,-0.016C0.463,0.001 0.413,0.01 0.356,0.01C0.298,0.01 0.247,-0.004 0.202,-0.031C0.157,-0.058 0.122,-0.097 0.097,-0.147C0.073,-0.197 0.06,-0.255 0.06,-0.321L0.06,-0.383C0.06,-0.49 0.085,-0.573 0.135,-0.632C0.184,-0.691 0.255,-0.721 0.345,-0.721C0.419,-0.721 0.479,-0.702 0.524,-0.664C0.57,-0.626 0.597,-0.572 0.607,-0.502L0.514,-0.502C0.496,-0.597 0.44,-0.644 0.346,-0.644C0.283,-0.644 0.235,-0.622 0.203,-0.577C0.17,-0.533 0.154,-0.469 0.154,-0.386L0.154,-0.328C0.154,-0.248 0.172,-0.184 0.208,-0.137C0.245,-0.09 0.294,-0.067 0.356,-0.067C0.392,-0.067 0.422,-0.071 0.449,-0.079C0.475,-0.086 0.497,-0.1 0.514,-0.118L0.514,-0.278L0.35,-0.278L0.35,-0.354L0.607,-0.354L0.607,-0.093Z" style="fill:white;fill-rule:nonzero;"/>
                            </g>
                            <g transform="matrix(136.322,0,0,136.322,20073.7,53.5114)">
                                <rect x="0.089" y="-0.711" width="0.094" height="0.711" style="fill:white;fill-rule:nonzero;"/>
                            </g>
                            <g transform="matrix(136.322,0,0,136.322,20108.9,53.5114)">
                                <path d="M0.574,-0.634L0.345,-0.634L0.345,-0L0.252,-0L0.252,-0.634L0.024,-0.634L0.024,-0.711L0.574,-0.711L0.574,-0.634Z" style="fill:white;fill-rule:nonzero;"/>
                            </g>
                            <g transform="matrix(136.322,0,0,136.322,20190.2,53.5114)">
                                <path d="M0.086,0.061L0.009,0.061L0.306,-0.711L0.383,-0.711L0.086,0.061Z" style="fill:white;fill-rule:nonzero;"/>
                            </g>
                            <g transform="matrix(136.322,0,0,136.322,20246.4,53.5114)">
                                <path d="M0.324,-0.447C0.31,-0.45 0.295,-0.451 0.279,-0.451C0.22,-0.451 0.18,-0.425 0.159,-0.375L0.159,-0L0.068,-0L0.068,-0.528L0.156,-0.528L0.158,-0.467C0.187,-0.514 0.229,-0.538 0.284,-0.538C0.301,-0.538 0.315,-0.536 0.324,-0.531L0.324,-0.447Z" style="fill:white;fill-rule:nonzero;"/>
                            </g>
                            <g transform="matrix(136.322,0,0,136.322,20292.5,53.5114)">
                                <path d="M0.101,-0.356L0.137,-0.711L0.501,-0.711L0.501,-0.627L0.213,-0.627L0.192,-0.434C0.227,-0.454 0.266,-0.464 0.311,-0.464C0.375,-0.464 0.427,-0.443 0.465,-0.4C0.503,-0.357 0.522,-0.299 0.522,-0.227C0.522,-0.153 0.502,-0.096 0.463,-0.053C0.423,-0.011 0.368,0.01 0.297,0.01C0.234,0.01 0.183,-0.008 0.143,-0.042C0.103,-0.077 0.081,-0.125 0.075,-0.187L0.161,-0.187C0.166,-0.146 0.181,-0.116 0.204,-0.095C0.228,-0.074 0.258,-0.064 0.297,-0.064C0.339,-0.064 0.372,-0.078 0.396,-0.107C0.42,-0.136 0.432,-0.175 0.432,-0.226C0.432,-0.273 0.419,-0.311 0.393,-0.34C0.367,-0.369 0.333,-0.383 0.29,-0.383C0.25,-0.383 0.219,-0.375 0.197,-0.357L0.173,-0.338L0.101,-0.356Z" style="fill:white;fill-rule:nonzero;"/>
                            </g>
                            <g transform="matrix(136.322,0,0,136.322,20369.1,53.5114)">
                                <path d="M0.324,-0.447C0.31,-0.45 0.295,-0.451 0.279,-0.451C0.22,-0.451 0.18,-0.425 0.159,-0.375L0.159,-0L0.068,-0L0.068,-0.528L0.156,-0.528L0.158,-0.467C0.187,-0.514 0.229,-0.538 0.284,-0.538C0.301,-0.538 0.315,-0.536 0.324,-0.531L0.324,-0.447Z" style="fill:white;fill-rule:nonzero;"/>
                            </g>
                        </g>
                    </g>
                    <g id="Text">
                    </g>
                </g>
            </g>
        </g>
    </g>
</svg>
