<?xml version="1.0" encoding="UTF-8" standalone="no"?>
<!DOCTYPE svg PUBLIC "-//W3C//DTD SVG 1.1//EN" "http://www.w3.org/Graphics/SVG/1.1/DTD/svg11.dtd">
<svg width="100%" height="100%" viewBox="0 0 519 600" version="1.1" xmlns="http://www.w3.org/2000/svg" xmlns:xlink="http://www.w3.org/1999/xlink" xml:space="preserve" xmlns:serif="http://www.serif.com/" style="fill-rule:evenodd;clip-rule:evenodd;stroke-linecap:round;stroke-miterlimit:1.5;">
    <g transform="matrix(1,0,0,1,-18742.7,0)">
        <g id="R5R-Preto" serif:id="R5R Preto" transform="matrix(0.176058,0,0,0.426002,15951.6,-691.627)">
            <rect x="15853.6" y="1623.53" width="2945.08" height="1408.44" style="fill:none;"/>
            <clipPath id="_clip1">
                <rect x="15853.6" y="1623.53" width="2945.08" height="1408.44"/>
            </clipPath>
            <g clip-path="url(#_clip1)">
                <g id="Logo1" transform="matrix(1.7383,0,0,0.718404,15144.5,1112.37)">
                    <g transform="matrix(15.8978,0,0,15.9314,393.18,690.334)">
                        <g id="Hex">
                            <path d="M0.93,32.09L0.93,93.62L54.21,124.39L107.5,93.62L107.5,32.09L54.21,1.33L0.93,32.09Z" style="fill-rule:nonzero;"/>
                            <path d="M0.93,32.09L0.93,93.62L54.21,124.39L107.5,93.62L107.5,32.09L54.21,1.33L0.93,32.09ZM3.927,33.815L3.927,91.895L54.21,120.934L104.503,91.895L104.503,33.815L54.21,4.785L3.927,33.815Z" style="fill:rgb(54,54,54);"/>
                        </g>
                    </g>
                    <g id="grid_rotated" transform="matrix(0.379762,1.04246,-1.04246,0.379762,3041,-47.675)">
                        <path d="M1290.62,2125.98L1594.49,2125.98" style="fill:none;stroke:rgb(92,92,92);stroke-width:3.68px;"/>
                        <g transform="matrix(1,3.08149e-33,-3.08149e-33,1,-7.10543e-15,59.0551)">
                            <path d="M1299.45,2125.98L1594.32,2125.98" style="fill:none;stroke:rgb(92,92,92);stroke-width:3.68px;"/>
                        </g>
                        <g transform="matrix(1,3.08149e-33,-3.08149e-33,1,-7.10543e-15,118.11)">
                            <path d="M1367.87,2125.98L1594.52,2125.98" style="fill:none;stroke:rgb(92,92,92);stroke-width:3.68px;"/>
                        </g>
                        <g transform="matrix(1,3.08149e-33,-3.08149e-33,1,-7.10543e-15,177.165)">
                            <path d="M1465.09,2125.98L1592.5,2125.98" style="fill:none;stroke:rgb(92,92,92);stroke-width:3.68px;"/>
                        </g>
                        <g transform="matrix(1,3.08149e-33,-3.08149e-33,1,-7.10543e-15,-59.0551)">
                            <path d="M1182.3,2125.98L1594.49,2125.98" style="fill:none;stroke:rgb(92,92,92);stroke-width:3.68px;"/>
                        </g>
                        <g transform="matrix(1,3.08149e-33,-3.08149e-33,1,-7.10543e-15,-118.11)">
                            <path d="M1082.76,2126.99L1476.38,2125.98" style="fill:none;stroke:rgb(92,92,92);stroke-width:3.68px;"/>
                        </g>
                        <g transform="matrix(1,3.08149e-33,-3.08149e-33,1,-7.10543e-15,-177.165)">
                            <path d="M961.398,2125.98L1476.38,2125.98" style="fill:none;stroke:rgb(92,92,92);stroke-width:3.68px;"/>
                        </g>
                        <g transform="matrix(1,3.08149e-33,-3.08149e-33,1,-7.10543e-15,-236.22)">
                            <path d="M971.721,2125.98L1476.38,2125.98" style="fill:none;stroke:rgb(92,92,92);stroke-width:3.68px;"/>
                        </g>
                        <g transform="matrix(1,3.08149e-33,-3.08149e-33,1,-7.10543e-15,-295.276)">
                            <path d="M983.823,2125.98L1476.38,2125.98" style="fill:none;stroke:rgb(92,92,92);stroke-width:3.68px;"/>
                        </g>
                        <g transform="matrix(1,3.08149e-33,-3.08149e-33,1,-7.10543e-15,-354.331)">
                            <path d="M1017.9,2125.98L1476.38,2125.98" style="fill:none;stroke:rgb(92,92,92);stroke-width:3.68px;"/>
                        </g>
                        <g transform="matrix(1,3.08149e-33,-3.08149e-33,1,-7.10543e-15,-413.386)">
                            <path d="M1048.29,2125.98L1476.38,2125.98" style="fill:none;stroke:rgb(92,92,92);stroke-width:3.68px;"/>
                        </g>
                        <g transform="matrix(1,3.08149e-33,-3.08149e-33,1,-7.10543e-15,-472.441)">
                            <path d="M1074.97,2138.86L1359.5,2132.53" style="fill:none;stroke:rgb(92,92,92);stroke-width:3.68px;"/>
                        </g>
                        <g transform="matrix(1,0,0,1,295.276,0)">
                            <path d="M708.661,1789.37L708.661,1968.94" style="fill:none;stroke:rgb(92,92,92);stroke-width:3.68px;"/>
                        </g>
                        <g transform="matrix(1,0,0,1,354.331,0)">
                            <path d="M708.661,1687.15L708.661,2003.06" style="fill:none;stroke:rgb(92,92,92);stroke-width:3.68px;"/>
                        </g>
                        <g transform="matrix(1,0,0,1,413.386,0)">
                            <path d="M708.661,1665.37L708.661,2037.18" style="fill:none;stroke:rgb(92,92,92);stroke-width:3.68px;"/>
                        </g>
                        <g transform="matrix(1,0,0,1,472.441,0)">
                            <path d="M708.661,1664.06L708.661,2071.3" style="fill:none;stroke:rgb(92,92,92);stroke-width:3.68px;"/>
                        </g>
                        <g transform="matrix(1,0,0,1,531.496,0)">
                            <path d="M708.661,1662.74L708.661,2105.41" style="fill:none;stroke:rgb(92,92,92);stroke-width:3.68px;"/>
                        </g>
                        <g transform="matrix(1,0,0,1,590.551,0)">
                            <path d="M708.661,1661.43L708.661,2203.64" style="fill:none;stroke:rgb(92,92,92);stroke-width:3.68px;"/>
                        </g>
                        <g transform="matrix(1,0,0,1,649.606,0)">
                            <path d="M708.661,1659.64L708.661,2241.37" style="fill:none;stroke:rgb(92,92,92);stroke-width:3.68px;"/>
                        </g>
                        <g transform="matrix(1,0,0,1,708.661,0)">
                            <path d="M708.661,1712.6L708.661,2272.93" style="fill:none;stroke:rgb(92,92,92);stroke-width:3.68px;"/>
                        </g>
                        <g transform="matrix(1,0,0,1,767.717,0)">
                            <path d="M708.661,1712.6L708.661,2307.26" style="fill:none;stroke:rgb(92,92,92);stroke-width:3.68px;"/>
                        </g>
                        <g transform="matrix(1,0,0,1,826.772,0)">
                            <path d="M708.661,2066.93L708.661,2303.15" style="fill:none;stroke:rgb(92,92,92);stroke-width:3.68px;"/>
                        </g>
                        <g transform="matrix(1,0,0,1,885.827,0)">
                            <path d="M708.661,2066.93L708.661,2303.87" style="fill:none;stroke:rgb(92,92,92);stroke-width:3.68px;"/>
                        </g>
                    </g>
                    <g id="grid" transform="matrix(1.09262,0.192659,-0.192659,1.09262,297.278,-472.217)">
                        <path d="M708.661,2125.98L1240.58,2125.98" style="fill:none;stroke:rgb(92,92,92);stroke-width:3.68px;stroke-linecap:square;"/>
                        <g transform="matrix(1,3.08149e-33,-3.08149e-33,1,-7.10543e-15,59.0551)">
                            <path d="M708.661,2125.98L1240.58,2125.98" style="fill:none;stroke:rgb(92,92,92);stroke-width:3.68px;stroke-linecap:square;"/>
                        </g>
                        <g transform="matrix(1,3.08149e-33,-3.08149e-33,1,-7.10543e-15,118.11)">
                            <path d="M885.827,2125.98L1240.58,2125.98" style="fill:none;stroke:rgb(92,92,92);stroke-width:3.68px;stroke-linecap:square;"/>
                        </g>
                        <g transform="matrix(1,3.08149e-33,-3.08149e-33,1,-7.10543e-15,177.165)">
                            <path d="M944.979,2125.98L1242.13,2125.98" style="fill:none;stroke:rgb(92,92,92);stroke-width:3.68px;stroke-linecap:square;"/>
                        </g>
                        <g transform="matrix(1,3.08149e-33,-3.08149e-33,1,-7.10543e-15,236.22)">
                            <path d="M1117.46,2125.98L1241.31,2125.98" style="fill:none;stroke:rgb(92,92,92);stroke-width:3.68px;stroke-linecap:square;"/>
                        </g>
                        <g transform="matrix(1,3.08149e-33,-3.08149e-33,1,-7.10543e-15,295.276)">
                            <path d="M1122.05,2125.14L1269.92,2124.84" style="fill:none;stroke:rgb(92,92,92);stroke-width:3.68px;stroke-linecap:square;"/>
                        </g>
                        <g transform="matrix(1,3.08149e-33,-3.08149e-33,1,-7.10543e-15,354.331)">
                            <path d="M1122.05,2125.98L1292.64,2125.98" style="fill:none;stroke:rgb(92,92,92);stroke-width:3.68px;stroke-linecap:square;"/>
                        </g>
                        <g transform="matrix(1,3.08149e-33,-3.08149e-33,1,-7.10543e-15,-59.0551)">
                            <path d="M708.661,2125.98L1297.88,2125.98" style="fill:none;stroke:rgb(92,92,92);stroke-width:3.68px;stroke-linecap:square;"/>
                        </g>
                        <g transform="matrix(1,3.08149e-33,-3.08149e-33,1,-7.10543e-15,-118.11)">
                            <path d="M826.772,2125.98L1240.58,2125.98" style="fill:none;stroke:rgb(92,92,92);stroke-width:3.68px;stroke-linecap:square;"/>
                        </g>
                        <g transform="matrix(1,3.08149e-33,-3.08149e-33,1,-7.10543e-15,-177.165)">
                            <path d="M826.772,2125.98L1299.21,2125.98" style="fill:none;stroke:rgb(92,92,92);stroke-width:3.68px;stroke-linecap:square;"/>
                        </g>
                        <g transform="matrix(1,3.08149e-33,-3.08149e-33,1,-7.10543e-15,-236.22)">
                            <path d="M825.138,2125.98L1298.56,2125.98" style="fill:none;stroke:rgb(92,92,92);stroke-width:3.68px;stroke-linecap:square;"/>
                        </g>
                        <g transform="matrix(1,3.08149e-33,-3.08149e-33,1,-7.10543e-15,-295.276)">
                            <path d="M824.107,2125.98L1299.15,2125.98" style="fill:none;stroke:rgb(92,92,92);stroke-width:3.68px;stroke-linecap:square;"/>
                        </g>
                        <g transform="matrix(1,3.08149e-33,-3.08149e-33,1,-7.10543e-15,-354.331)">
                            <path d="M825.101,2125.98L1240.58,2125.51" style="fill:none;stroke:rgb(92,92,92);stroke-width:3.68px;stroke-linecap:square;"/>
                        </g>
                        <g transform="matrix(1,3.08149e-33,-3.08149e-33,1,-7.10543e-15,-413.386)">
                            <path d="M885.827,2125.98L1653.54,2125.98" style="fill:none;stroke:rgb(92,92,92);stroke-width:3.68px;stroke-linecap:square;"/>
                        </g>
                        <g transform="matrix(1,3.08149e-33,-3.08149e-33,1,-7.10543e-15,-472.441)">
                            <path d="M885.827,2125.98L1653.54,2125.98" style="fill:none;stroke:rgb(92,92,92);stroke-width:3.68px;stroke-linecap:square;"/>
                        </g>
                        <g transform="matrix(1,3.08149e-33,-3.08149e-33,1,-7.10543e-15,-531.496)">
                            <path d="M885.827,2125.98L1417.6,2125.98" style="fill:none;stroke:rgb(92,92,92);stroke-width:3.68px;stroke-linecap:square;"/>
                        </g>
                        <g transform="matrix(1,3.08149e-33,-3.08149e-33,1,-10.709,-592.23)">
                            <path d="M1132.76,2125.98L1309.92,2125.98" style="fill:none;stroke:rgb(92,92,92);stroke-width:3.68px;stroke-linecap:square;"/>
                        </g>
                        <path d="M708.661,2066.93L708.661,2185.11" style="fill:none;stroke:rgb(92,92,92);stroke-width:3.68px;stroke-linecap:square;"/>
                        <g transform="matrix(1,0,0,1,59.0551,0)">
                            <path d="M708.661,2066.93L708.661,2185.57" style="fill:none;stroke:rgb(92,92,92);stroke-width:3.68px;stroke-linecap:square;"/>
                        </g>
                        <g transform="matrix(1,0,0,1,118.11,0)">
                            <path d="M708.661,1772.21L708.661,2187.02" style="fill:none;stroke:rgb(92,92,92);stroke-width:3.68px;stroke-linecap:square;"/>
                        </g>
                        <g transform="matrix(1,0,0,1,177.165,0)">
                            <path d="M708.661,1594.49L708.661,2244.09" style="fill:none;stroke:rgb(92,92,92);stroke-width:3.68px;stroke-linecap:square;"/>
                        </g>
                        <g transform="matrix(1,0,0,1,236.22,0)">
                            <path d="M708.661,1594.49L708.661,2302.6" style="fill:none;stroke:rgb(92,92,92);stroke-width:3.68px;stroke-linecap:square;"/>
                        </g>
                        <g transform="matrix(1,0,0,1,295.276,0)">
                            <path d="M708.661,1594.49L708.661,2303.15" style="fill:none;stroke:rgb(92,92,92);stroke-width:3.68px;stroke-linecap:square;"/>
                        </g>
                        <g transform="matrix(1,0,0,1,354.331,0)">
                            <path d="M708.661,1594.49L708.661,2303.15" style="fill:none;stroke:rgb(92,92,92);stroke-width:3.68px;stroke-linecap:square;"/>
                        </g>
                        <g transform="matrix(1,0,0,1,413.386,0)">
                            <path d="M708.661,1533.75L708.661,2480.32" style="fill:none;stroke:rgb(92,92,92);stroke-width:3.68px;stroke-linecap:square;"/>
                        </g>
                        <g transform="matrix(1,0,0,1,472.441,0)">
                            <path d="M708.661,1533.75L708.661,2480.32" style="fill:none;stroke:rgb(92,92,92);stroke-width:3.68px;stroke-linecap:square;"/>
                        </g>
                        <g transform="matrix(1,0,0,1,531.496,0)">
                            <path d="M708.661,1594.49L708.661,2480.32" style="fill:none;stroke:rgb(92,92,92);stroke-width:3.68px;stroke-linecap:square;"/>
                        </g>
                        <g transform="matrix(1,0,0,1,590.551,0)">
                            <path d="M708.661,1533.75L708.661,2128.33" style="fill:none;stroke:rgb(92,92,92);stroke-width:3.68px;stroke-linecap:square;"/>
                        </g>
                        <g transform="matrix(1,0,0,1,649.606,0)">
                            <path d="M708.661,1594.49L708.661,1735.63" style="fill:none;stroke:rgb(92,92,92);stroke-width:3.68px;stroke-linecap:square;"/>
                        </g>
                        <g transform="matrix(1,0,0,1,708.661,0)">
                            <path d="M708.661,1594.49L708.661,1712.06" style="fill:none;stroke:rgb(92,92,92);stroke-width:3.68px;stroke-linecap:square;"/>
                        </g>
                        <g transform="matrix(1,0,0,1,767.717,0)">
                            <path d="M708.661,1653.54L708.661,1711.83" style="fill:none;stroke:rgb(92,92,92);stroke-width:3.68px;stroke-linecap:square;"/>
                        </g>
                        <g transform="matrix(1,0,0,1,826.772,0)">
                            <path d="M708.661,1653.54L708.661,1711.83" style="fill:none;stroke:rgb(92,92,92);stroke-width:3.68px;stroke-linecap:square;"/>
                        </g>
                        <g transform="matrix(1,0,0,1,885.827,0)">
                            <path d="M708.661,1653.54L708.661,1711.83" style="fill:none;stroke:rgb(92,92,92);stroke-width:3.68px;stroke-linecap:square;"/>
                        </g>
                        <g transform="matrix(1,0,0,1,944.882,0)">
                            <path d="M708.661,1653.54L708.661,1806.57" style="fill:none;stroke:rgb(92,92,92);stroke-width:3.68px;stroke-linecap:square;"/>
                        </g>
                    </g>
                    <g id="Layer1" transform="matrix(1.09814,0.193632,-0.193632,1.09814,334.684,-342.509)">
                        <path d="M885.827,2066.93L767.717,2066.93" style="fill:none;stroke:white;stroke-width:7.33px;stroke-linejoin:round;"/>
                        <path d="M1122.05,1889.76L1062.99,1889.76" style="fill:none;stroke:white;stroke-width:7.33px;stroke-linejoin:round;"/>
                        <path d="M1062.99,1889.76L1062.99,2125.98" style="fill:none;stroke:white;stroke-width:7.33px;stroke-linejoin:round;"/>
                        <path d="M826.772,1653.54L826.772,1889.76" style="fill:none;stroke:white;stroke-width:7.33px;stroke-linejoin:round;"/>
                        <path d="M1003.94,1653.54L1003.94,1771.65" style="fill:none;stroke:white;stroke-width:7.33px;stroke-linejoin:round;"/>
                        <path d="M1003.94,1771.65L944.882,1771.65" style="fill:none;stroke:white;stroke-width:7.33px;stroke-linejoin:round;"/>
                        <path d="M944.882,1889.76L885.827,1889.76L885.827,2066.93" style="fill:none;stroke:white;stroke-width:7.33px;stroke-linejoin:round;"/>
                        <path d="M944.882,1712.6L885.827,1712.6" style="fill:none;stroke:white;stroke-width:7.33px;stroke-linejoin:round;"/>
                        <path d="M1122.05,1771.65L1062.99,1771.65" style="fill:none;stroke:white;stroke-width:7.33px;stroke-linejoin:round;"/>
                        <path d="M1062.99,1771.65L1062.99,1830.71L1003.94,1830.71" style="fill:none;stroke:white;stroke-width:7.33px;stroke-linejoin:round;"/>
                        <path d="M1003.94,1830.71L1003.94,2007.87" style="fill:none;stroke:white;stroke-width:7.33px;stroke-linejoin:round;"/>
                        <path d="M1062.99,1653.54L1062.99,1594.49L944.882,1594.49L944.882,1535.43L826.772,1535.43" style="fill:none;stroke:white;stroke-width:7.33px;stroke-linejoin:round;"/>
                        <path d="M826.772,1653.54L767.717,1653.54L767.717,1712.6" style="fill:none;stroke:white;stroke-width:7.33px;stroke-linejoin:round;"/>
                        <path d="M826.772,1771.65L767.717,1771.65" style="fill:none;stroke:white;stroke-width:7.33px;stroke-linejoin:round;"/>
                        <path d="M826.772,1889.76L767.717,1889.76L767.717,2007.87L708.661,2007.87" style="fill:none;stroke:white;stroke-width:7.33px;stroke-linejoin:round;"/>
                        <path d="M1003.94,2066.93L1003.94,2007.87" style="fill:none;stroke:white;stroke-width:7.33px;stroke-linejoin:round;"/>
                        <path d="M944.882,2007.87L1003.94,2007.87" style="fill:none;stroke:white;stroke-width:7.33px;stroke-linejoin:round;"/>
                        <path d="M944.882,2007.87L944.882,2125.98" style="fill:none;stroke:white;stroke-width:7.33px;stroke-linejoin:round;"/>
                        <path d="M885.827,2125.98L944.882,2125.98" style="fill:none;stroke:white;stroke-width:7.33px;stroke-linejoin:round;"/>
                        <path d="M1181.1,2185.04L1122.05,2185.04L1122.05,2244.09L1062.99,2244.09" style="fill:none;stroke:white;stroke-width:7.33px;"/>
                        <path d="M1181.1,2185.04L1181.1,2362.2L1240.16,2362.2" style="fill:none;stroke:white;stroke-width:7.33px;stroke-linejoin:round;"/>
                        <path d="M1122.05,1535.43L1181.1,1535.43L1181.1,1417.32" style="fill:none;stroke:white;stroke-width:7.33px;stroke-linejoin:round;"/>
                        <path d="M1666.05,1912.42L1476.38,1594.49" style="fill:none;stroke:white;stroke-width:7.33px;stroke-linejoin:round;"/>
                        <g transform="matrix(1,0,0,1,-59.0551,4.44089e-16)">
                            <path d="M1588.39,1791.33L1476.38,1594.49" style="fill:none;stroke:white;stroke-width:7.33px;stroke-linejoin:round;"/>
                        </g>
                        <g transform="matrix(1,0,0,1,-60.2921,238.331)">
                            <path d="M1494.09,1624.02L1426.99,1507.74" style="fill:none;stroke:white;stroke-width:7.33px;stroke-linejoin:round;"/>
                        </g>
                        <g transform="matrix(1,0,0,1,-236.22,59.0551)">
                            <path d="M1668.74,1920.42L1471.28,1576.5" style="fill:none;stroke:white;stroke-width:7.33px;stroke-linejoin:round;"/>
                        </g>
                        <g transform="matrix(6.12323e-17,-1,1,6.12323e-17,-144.244,3446.32)">
                            <path d="M1496.37,1627.87L1466.83,1578.58" style="fill:none;stroke:white;stroke-width:7.33px;stroke-linejoin:round;"/>
                        </g>
                        <g transform="matrix(1.44499e-16,-1,1,1.44499e-16,28.4111,3414.69)">
                            <path d="M1502.27,1637.63L1466.83,1578.58" style="fill:none;stroke:white;stroke-width:7.33px;stroke-linejoin:round;"/>
                        </g>
                        <g transform="matrix(3.38982e-18,-0.834868,0.857053,7.56647e-17,-40.6039,2998.43)">
                            <path d="M1499.63,1641.04L1465.14,1582" style="fill:none;stroke:white;stroke-width:8.66px;stroke-linejoin:round;"/>
                        </g>
                        <g transform="matrix(6.12323e-17,-1,1,6.12323e-17,-165.236,3526.68)">
                            <path d="M1502.27,1637.63L1466.83,1578.58" style="fill:none;stroke:white;stroke-width:7.33px;stroke-linejoin:round;"/>
                        </g>
                        <g transform="matrix(6.12323e-17,-1,1,6.12323e-17,-178.84,3737.42)">
                            <path d="M1502.27,1637.63L1466.83,1578.58" style="fill:none;stroke:white;stroke-width:7.33px;stroke-linejoin:round;"/>
                        </g>
                        <g transform="matrix(1,0,0,1,-236.22,177.165)">
                            <path d="M1649.56,1882.68L1480.1,1593.83" style="fill:none;stroke:white;stroke-width:7.33px;stroke-linejoin:round;"/>
                        </g>
                        <g transform="matrix(1,0,0,1,-236.22,295.276)">
                            <path d="M1635.27,1859.3L1480.6,1594.29" style="fill:none;stroke:white;stroke-width:7.33px;stroke-linejoin:round;"/>
                        </g>
                        <g transform="matrix(1,0,0,1,-236.22,413.386)">
                            <path d="M1635.96,1857.2L1482.69,1596.13" style="fill:none;stroke:white;stroke-width:7.33px;stroke-linejoin:round;"/>
                        </g>
                        <g transform="matrix(1,0,0,1,-289.554,427.454)">
                            <path d="M1636.68,1872.6L1476.38,1594.49" style="fill:none;stroke:white;stroke-width:7.33px;stroke-linejoin:round;"/>
                        </g>
                        <path d="M1243.88,1771L1181.1,1771.65" style="fill:none;stroke:white;stroke-width:7.33px;stroke-linejoin:round;"/>
                        <path d="M1244.38,1889.57L1181.1,1889.76" style="fill:none;stroke:white;stroke-width:7.33px;stroke-linejoin:round;"/>
                        <path d="M1246.47,2009.52L1181.1,2007.87" style="fill:none;stroke:white;stroke-width:7.33px;stroke-linejoin:round;"/>
                        <g transform="matrix(1,0,0,1,9.47076,0.723113)">
                            <path d="M1230.61,1637.63L1230.61,1535.43L1299.21,1535.43" style="fill:none;stroke:white;stroke-width:7.33px;stroke-linejoin:round;"/>
                        </g>
                    </g>
                    <g id="main_paths" transform="matrix(3.26753,0,0,3.26753,-60834.5,711.523)">
                        <g transform="matrix(0.336077,0.0592595,-0.0592595,0.336077,18720.3,-322.577)">
                            <path d="M826.772,1653.54L1181.1,1653.54" style="fill:none;stroke:white;stroke-width:15.87px;stroke-linejoin:round;"/>
                        </g>
                        <g transform="matrix(0.336077,0.0592595,-0.0592595,0.336077,18720.3,-322.577)">
                            <path d="M1122.05,1653.54L1122.05,1889.76" style="fill:none;stroke:white;stroke-width:15.87px;stroke-linejoin:round;"/>
                        </g>
                        <g transform="matrix(0.336077,0.0592595,-0.0592595,0.336077,18720.3,-322.577)">
                            <path d="M1122.05,1653.54L1122.05,1476.38" style="fill:none;stroke:white;stroke-width:15.87px;stroke-linejoin:round;"/>
                        </g>
                        <g transform="matrix(0.336077,0.0592595,-0.0592595,0.336077,18720.3,-322.577)">
                            <path d="M1003.94,1712.6L944.882,1712.6" style="fill:none;stroke:white;stroke-width:15.87px;stroke-linejoin:round;"/>
                        </g>
                        <g transform="matrix(0.336077,0.0592595,-0.066667,0.378087,18732.5,-392.042)">
                            <path d="M1181.1,1653.54L1181.1,2125.98" style="fill:none;stroke:white;stroke-width:14.91px;stroke-linejoin:bevel;"/>
                        </g>
                        <g transform="matrix(0.336077,0.0592595,-0.0592595,0.336077,18720.3,-322.577)">
                            <path d="M1003.94,1712.6L1122.05,1712.6" style="fill:none;stroke:white;stroke-width:15.87px;stroke-linejoin:round;"/>
                        </g>
                        <g transform="matrix(0.336077,0.0592595,-0.0592595,0.336077,18720.3,-322.577)">
                            <path d="M1181.1,1653.54L1358.27,1594.49L1535.43,1594.49L1641.73,1771.65" style="fill:none;stroke:white;stroke-width:15.87px;stroke-linejoin:round;"/>
                        </g>
                        <g transform="matrix(0.336077,0.0592595,-0.0592595,0.336077,18720.3,-322.577)">
                            <path d="M944.882,1712.6L944.882,1889.76" style="fill:none;stroke:white;stroke-width:15.87px;stroke-linejoin:round;"/>
                        </g>
                    </g>
                    <g id="Origin" transform="matrix(3.15736,-2.027e-16,2.027e-16,3.15736,-1191.66,-3109.35)">
                        <circle cx="772.251" cy="1520.19" r="15.244"/>
                        <path d="M772.251,1504.94C780.665,1504.94 787.495,1511.78 787.495,1520.19C787.495,1528.6 780.665,1535.43 772.251,1535.43C763.838,1535.43 757.007,1528.6 757.007,1520.19C757.007,1511.78 763.838,1504.94 772.251,1504.94ZM772.251,1510.12C777.809,1510.12 782.321,1514.63 782.321,1520.19C782.321,1525.75 777.809,1530.26 772.251,1530.26C766.694,1530.26 762.181,1525.75 762.181,1520.19C762.181,1514.63 766.694,1510.12 772.251,1510.12Z" style="fill:white;"/>
                    </g>
                    <g id="Destinations" transform="matrix(1.24132,0,0,1.24132,-184.873,-463.27)">
                        <g transform="matrix(1,0,0,1,473.185,15.2443)">
                            <circle cx="772.251" cy="1520.19" r="15.244" style="stroke:white;stroke-width:8.23px;stroke-linejoin:round;"/>
                        </g>
                        <g transform="matrix(1,0,0,1,409.354,59.0551)">
                            <circle cx="772.251" cy="1520.19" r="15.244" style="stroke:white;stroke-width:8.23px;stroke-linejoin:round;"/>
                        </g>
                        <g transform="matrix(1,0,0,1,138.178,64.4065)">
                            <circle cx="772.251" cy="1520.19" r="15.244" style="stroke:white;stroke-width:8.23px;stroke-linejoin:round;"/>
                        </g>
                        <g transform="matrix(1,0,0,1,58.2755,208.798)">
                            <circle cx="772.251" cy="1520.19" r="15.244" style="stroke:white;stroke-width:8.23px;stroke-linejoin:round;"/>
                        </g>
                        <g transform="matrix(1,0,0,1,159.358,230.065)">
                            <circle cx="772.251" cy="1520.19" r="15.244" style="stroke:white;stroke-width:8.23px;stroke-linejoin:round;"/>
                        </g>
                        <g transform="matrix(1,0,0,1,45.0312,261.174)">
                            <circle cx="772.251" cy="1520.19" r="15.244" style="stroke:white;stroke-width:8.23px;stroke-linejoin:round;"/>
                        </g>
                        <g transform="matrix(1,0,0,1,-48.3455,461.182)">
                            <circle cx="772.251" cy="1520.19" r="15.244" style="stroke:white;stroke-width:8.23px;stroke-linejoin:round;"/>
                        </g>
                        <g transform="matrix(1,0,0,1,6.15003,525.364)">
                            <circle cx="772.251" cy="1520.19" r="15.244" style="stroke:white;stroke-width:8.23px;stroke-linejoin:round;"/>
                        </g>
                        <g transform="matrix(1,0,0,1,96.7453,594.405)">
                            <circle cx="772.251" cy="1520.19" r="15.244" style="stroke:white;stroke-width:8.23px;stroke-linejoin:round;"/>
                        </g>
                        <g transform="matrix(1,0,0,1,213.364,563.917)">
                            <circle cx="772.251" cy="1520.19" r="15.244" style="stroke:white;stroke-width:8.23px;stroke-linejoin:round;"/>
                        </g>
                        <g transform="matrix(1,0,0,1,254.943,615.901)">
                            <circle cx="772.251" cy="1520.19" r="15.244" style="stroke:white;stroke-width:8.23px;stroke-linejoin:round;"/>
                        </g>
                        <g transform="matrix(1,0,0,1,231.776,723.906)">
                            <circle cx="772.251" cy="1520.19" r="15.244" style="stroke:white;stroke-width:8.23px;stroke-linejoin:round;"/>
                        </g>
                        <g transform="matrix(1,0,0,1,365.571,857.26)">
                            <circle cx="772.251" cy="1520.19" r="15.244" style="stroke:white;stroke-width:8.23px;stroke-linejoin:round;"/>
                        </g>
                        <g transform="matrix(1,0,0,1,479.257,821.991)">
                            <circle cx="772.251" cy="1520.19" r="15.244" style="stroke:white;stroke-width:8.23px;stroke-linejoin:round;"/>
                        </g>
                        <g transform="matrix(1,0,0,1,578.497,785.999)">
                            <circle cx="772.251" cy="1520.19" r="15.244" style="stroke:white;stroke-width:8.23px;stroke-linejoin:round;"/>
                        </g>
                        <g transform="matrix(1,0,0,1,546.921,701.471)">
                            <circle cx="772.251" cy="1520.19" r="15.244" style="stroke:white;stroke-width:8.23px;stroke-linejoin:round;"/>
                        </g>
                        <g transform="matrix(1,0,0,1,621.813,599.283)">
                            <circle cx="772.251" cy="1520.19" r="15.244" style="stroke:white;stroke-width:8.23px;stroke-linejoin:round;"/>
                        </g>
                        <g transform="matrix(1,0,0,1,654.63,533.56)">
                            <circle cx="772.251" cy="1520.19" r="15.244" style="stroke:white;stroke-width:8.23px;stroke-linejoin:round;"/>
                        </g>
                        <g transform="matrix(1,0,0,1,620.057,437.58)">
                            <circle cx="772.251" cy="1520.19" r="15.244" style="stroke:white;stroke-width:8.23px;stroke-linejoin:round;"/>
                        </g>
                        <g transform="matrix(1,0,0,1,771.971,548.183)">
                            <circle cx="772.251" cy="1520.19" r="15.244" style="stroke:white;stroke-width:8.23px;stroke-linejoin:round;"/>
                        </g>
                        <g transform="matrix(1,0,0,1,719.804,400.368)">
                            <circle cx="772.251" cy="1520.19" r="15.244" style="stroke:white;stroke-width:8.23px;stroke-linejoin:round;"/>
                        </g>
                        <g transform="matrix(1,0,0,1,822.237,399.709)">
                            <circle cx="772.251" cy="1520.19" r="15.244" style="stroke:white;stroke-width:8.23px;stroke-linejoin:round;"/>
                        </g>
                        <g transform="matrix(1,0,0,1,554.271,141.578)">
                            <circle cx="772.251" cy="1520.19" r="15.244" style="stroke:white;stroke-width:8.23px;stroke-linejoin:round;"/>
                        </g>
                    </g>
                    <g id="Fast">
                    </g>
                    <g id="Text">
                    </g>
                </g>
                <g transform="matrix(1.61571,0,0,0.66774,4251.98,1577.46)">
                    <text x="8034.21px" y="595.721px" style="font-family:'Roboto-BoldItalic', 'Roboto';font-weight:700;font-style:italic;font-size:275.571px;fill:white;stroke:white;stroke-width:5.13px;stroke-linecap:butt;stroke-miterlimit:2;">5</text>
                </g>
                <g transform="matrix(2.8098,0,0,1.16123,-5824.52,1402.05)">
                    <text x="8034.21px" y="595.721px" style="font-family:'Roboto-BoldItalic', 'Roboto';font-weight:700;font-style:italic;font-size:275.571px;fill:white;stroke:white;stroke-width:2.95px;stroke-linecap:butt;stroke-miterlimit:2;">R</text>
                </g>
                <g transform="matrix(2.8098,0,0,1.16123,-5157.55,1402.05)">
                    <text x="8034.21px" y="595.721px" style="font-family:'Roboto-BoldItalic', 'Roboto';font-weight:700;font-style:italic;font-size:275.571px;fill:white;stroke:white;stroke-width:2.95px;stroke-linecap:butt;stroke-miterlimit:2;">R</text>
                </g>
                <g transform="matrix(0.569909,-0.135984,0.329037,0.235532,6793.37,5488.17)">
                    <text x="18983.5px" y="53.511px" style="font-family:'Roboto-Regular', 'Roboto';font-size:136.322px;fill:white;">github.com/ipeaGI<tspan x="20108.9px " y="53.511px ">T</tspan>/r5r</text>
                </g>
            </g>
        </g>
    </g>
</svg>
